<svg width="21" height="20" viewBox="0 0 21 20" fill="none" xmlns="http://www.w3.org/2000/svg">
<path fill-rule="evenodd" clip-rule="evenodd" d="M2.58191 4.375C2.58191 4.02982 2.86173 3.75 3.20691 3.75H18.2069C18.5521 3.75 18.8319 4.02982 18.8319 4.375V15C18.8319 15.3315 18.7002 15.6495 18.4658 15.8839C18.2314 16.1183 17.9134 16.25 17.5819 16.25H3.83191C3.50039 16.25 3.18245 16.1183 2.94803 15.8839C2.71361 15.6495 2.58191 15.3315 2.58191 15V4.375ZM3.83191 5V15H17.5819V5H3.83191Z" fill="white"/>
<path fill-rule="evenodd" clip-rule="evenodd" d="M2.74619 3.95268C2.97944 3.69823 3.37479 3.68104 3.62924 3.91428L10.7069 10.4021L17.7846 3.91428C18.039 3.68104 18.4344 3.69823 18.6676 3.95268C18.9009 4.20713 18.8837 4.60248 18.6292 4.83573L11.1292 11.7107C10.8903 11.9298 10.5235 11.9298 10.2846 11.7107L2.78458 4.83573C2.53014 4.60248 2.51295 4.20713 2.74619 3.95268Z" fill="white"/>
</svg>
