<svg width="20" height="21" viewBox="0 0 20 21" fill="none" xmlns="http://www.w3.org/2000/svg">
<path fill-rule="evenodd" clip-rule="evenodd" d="M6.17053 12.9491C6.28055 13.2763 6.10451 13.6307 5.77734 13.7408C4.71792 14.097 4.15489 14.9864 3.85373 15.8908C3.73414 16.2499 3.66189 16.5956 3.61848 16.8814C3.90434 16.838 4.25006 16.7658 4.60917 16.6462C5.51355 16.345 6.4029 15.782 6.75916 14.7226C6.86918 14.3954 7.2236 14.2194 7.55078 14.3294C7.87795 14.4394 8.05399 14.7938 7.94396 15.121C7.4096 16.71 6.08801 17.4712 5.00411 17.8322C4.45655 18.0145 3.94395 18.1045 3.5698 18.1494C3.38182 18.172 3.22641 18.1834 3.116 18.1892C3.06074 18.1921 3.01658 18.1936 2.98505 18.1944C2.96928 18.1948 2.95666 18.195 2.94737 18.1951L2.93596 18.1952L2.93217 18.1952L2.93077 18.1952L2.93019 18.1952C2.92993 18.1952 2.92969 18.1952 2.92969 17.5702C2.30469 17.5702 2.30469 17.57 2.30469 17.5697L2.30469 17.5692L2.30469 17.5678L2.30471 17.564L2.30481 17.5526C2.30493 17.5433 2.30514 17.5306 2.30553 17.5149C2.30631 17.4833 2.30782 17.4392 2.31072 17.3839C2.31653 17.2735 2.32797 17.1181 2.35052 16.9301C2.3954 16.556 2.48542 16.0434 2.66776 15.4958C3.0287 14.4119 3.78989 13.0903 5.37891 12.556C5.70608 12.4459 6.0605 12.622 6.17053 12.9491ZM2.92969 17.5702H2.30469C2.30469 17.9154 2.58451 18.1952 2.92969 18.1952V17.5702Z" fill="white"/>
<path fill-rule="evenodd" clip-rule="evenodd" d="M16.5462 3.95406C15.8207 3.84943 14.035 3.81002 12.2075 5.63753L7.34476 10.5003L9.99994 13.1555L14.8627 8.29271C16.6902 6.4652 16.6508 4.67951 16.5462 3.95406ZM16.7274 2.71727C15.7297 2.57282 13.5057 2.57157 11.3236 4.75365L6.01893 10.0583C5.90172 10.1755 5.83588 10.3345 5.83588 10.5003C5.83588 10.666 5.90172 10.825 6.01893 10.9422L9.558 14.4813C9.80208 14.7254 10.1978 14.7254 10.4419 14.4813L15.7466 9.17659C17.9286 6.99452 17.9274 4.77052 17.7829 3.77282C17.7464 3.5058 17.6234 3.25803 17.4328 3.0674C17.2422 2.87678 16.9944 2.75382 16.7274 2.71727Z" fill="white"/>
<path fill-rule="evenodd" clip-rule="evenodd" d="M14.4219 8.99243C14.7671 8.99243 15.0469 9.27225 15.0469 9.61743V14.6643L15.0468 14.6732C15.0421 15.0015 14.9085 15.3147 14.6749 15.5452L12.1526 18.0753C11.9925 18.2352 11.792 18.3486 11.5724 18.4035C11.3529 18.4584 11.1225 18.4527 10.906 18.3869C10.6895 18.3212 10.4948 18.1978 10.3429 18.0301C10.1911 17.8625 10.0875 17.6569 10.0433 17.4351C10.0433 17.435 10.0434 17.4353 10.0433 17.4351L9.38719 14.1622C9.31934 13.8237 9.5387 13.4944 9.87714 13.4265C10.2156 13.3587 10.545 13.578 10.6128 13.9165L11.2692 17.1909L13.7969 14.6554V9.61743C13.7969 9.27225 14.0767 8.99243 14.4219 8.99243Z" fill="white"/>
<path fill-rule="evenodd" clip-rule="evenodd" d="M5.82698 5.45319L5.83588 5.45312H10.8828C11.2279 5.45312 11.5078 5.73295 11.5078 6.07812C11.5078 6.4233 11.2279 6.70312 10.8828 6.70312H5.84472L5.83967 6.70828L5.83964 6.70825L3.30933 9.23075L3.3103 9.23094L6.58373 9.88719C6.92218 9.95504 7.14154 10.2844 7.07369 10.6229C7.00584 10.9613 6.67647 11.1807 6.33803 11.1128L3.06556 10.4568C3.06537 10.4567 3.06518 10.4567 3.065 10.4566C2.84325 10.4124 2.63764 10.3089 2.47006 10.1571C2.30235 10.0052 2.17903 9.81054 2.11327 9.594C2.04751 9.37746 2.04176 9.14712 2.09665 8.92757C2.15154 8.70802 2.265 8.50749 2.42493 8.34738L2.42587 8.34644L2.42587 8.34644L4.95498 5.82514C5.18549 5.59151 5.49869 5.45786 5.82698 5.45319Z" fill="white"/>
</svg>
