<svg width="20" height="21" viewBox="0 0 20 21" fill="none" xmlns="http://www.w3.org/2000/svg">
<path fill-rule="evenodd" clip-rule="evenodd" d="M10 3.625C7.58375 3.625 5.625 5.58375 5.625 8C5.625 10.4162 7.58375 12.375 10 12.375C12.4162 12.375 14.375 10.4162 14.375 8C14.375 5.58375 12.4162 3.625 10 3.625ZM4.375 8C4.375 4.8934 6.8934 2.375 10 2.375C13.1066 2.375 15.625 4.8934 15.625 8C15.625 11.1066 13.1066 13.625 10 13.625C6.8934 13.625 4.375 11.1066 4.375 8Z" fill="white"/>
<path fill-rule="evenodd" clip-rule="evenodd" d="M10 13.6245C8.57365 13.6245 7.17242 14 5.93719 14.7132C4.70196 15.4265 3.67625 16.4523 2.96318 17.6877C2.79062 17.9866 2.40839 18.0891 2.10944 17.9165C1.81049 17.7439 1.70803 17.3617 1.88059 17.0628C2.70336 15.6374 3.88687 14.4537 5.31214 13.6307C6.73741 12.8078 8.35421 12.3745 10 12.3745C11.6458 12.3745 13.2626 12.8078 14.6879 13.6307C16.1132 14.4537 17.2967 15.6374 18.1194 17.0628C18.292 17.3617 18.1895 17.7439 17.8906 17.9165C17.5916 18.0891 17.2094 17.9866 17.0368 17.6877C16.3238 16.4523 15.2981 15.4265 14.0628 14.7132C12.8276 14 11.4264 13.6245 10 13.6245Z" fill="white"/>
</svg>
